<svg width="164" height="93" viewBox="0 0 164 93" fill="none" xmlns="http://www.w3.org/2000/svg">
<path d="M81.9151 27.761C89.5582 27.761 95.7541 21.5465 95.7541 13.8805C95.7541 6.21451 89.5582 0 81.9151 0C74.2721 0 68.0762 6.21451 68.0762 13.8805C68.0762 21.5465 74.2721 27.761 81.9151 27.761Z" fill="#E63049"/>
<path d="M52.698 83.0836C54.9171 83.0836 56.7394 81.5852 57.4864 79.4923C58.2116 77.4432 58.2116 75.4168 58.6069 73.3232C59.4201 68.895 62.6491 65.8535 66.9104 65.8535H75.6967V83.0836H79.4527V92.1387H74.0272V88.4597H58.0572V92.1387H52.6973V83.0836H52.698ZM61.5723 83.0836H69.9413V71.2741H67.9203C65.6356 71.2741 64.6258 72.7726 64.0979 74.6449C63.2636 77.4863 63.7026 80.7695 61.5716 83.0829L61.5723 83.0836Z" fill="#2A7DE1"/>
<path d="M103.025 65.834V88.4175H97.5767V79.7364H88.1745V88.4175H82.749V65.834H88.1745V74.5144H97.5767V65.834H103.025Z" fill="#2A7DE1"/>
<path d="M41.1002 88.8565C34.686 88.8565 29.3916 83.6126 29.3916 77.0025C29.3916 70.4587 34.6642 65.2148 41.1002 65.2148C47.5151 65.2148 52.8089 70.4587 52.8089 77.0025C52.8089 83.6126 47.5151 88.8565 41.1002 88.8565ZM41.1002 70.8553C37.6958 70.8553 34.9277 73.5871 34.9277 77.0908C34.9277 80.6376 37.6951 83.3702 41.1002 83.3702C44.5047 83.3702 47.2734 80.6383 47.2734 77.0908C47.2734 73.5878 44.5279 70.8553 41.1002 70.8553Z" fill="#2A7DE1"/>
<path d="M24.8876 68.4544C23.438 66.9341 21.4394 65.9643 19.1985 65.876L10.1924 65.8767V88.4822H15.7715V82.159C16.7165 82.5336 17.7489 82.7315 18.825 82.7315C21.1533 82.7315 23.24 81.7843 24.7558 80.2633C26.2716 78.7429 27.2166 76.6281 27.2166 74.3147C27.2384 72.0006 26.3378 69.9522 24.8876 68.4537V68.4544ZM20.8679 76.3645C20.3408 76.8939 19.5938 77.2459 18.7588 77.2459C17.1112 77.2459 15.7934 75.9022 15.7934 74.2723V71.298H18.7588C20.4071 71.298 21.7241 72.6423 21.7241 74.2723C21.746 75.0872 21.3943 75.8365 20.8672 76.3652L20.8679 76.3645Z" fill="#2A7DE1"/>
<path d="M107.945 88.4171V65.8555H113.393V80.1551L122.817 65.8555H128.22V88.4171H122.817V74.1175L113.393 88.4171H107.945Z" fill="#2A7DE1"/>
<path d="M144.476 76.2553L152.933 65.834H145.903L138.567 75.8369V65.834H133.163V88.4395H138.567V77.5106L146.672 88.3949L153.592 88.4395L144.476 76.2553Z" fill="#2A7DE1"/>
<path d="M35.7615 36.6826V38.1373C34.1358 37.212 32.2472 36.6826 30.2698 36.6826C24.141 36.6826 19.3525 41.5738 19.3525 47.9641C19.3525 54.3312 24.141 59.2888 30.2698 59.2888H41.2977V36.6826H37.8707H35.7615ZM35.7615 53.6703H30.2698C27.217 53.6703 24.8661 51.2685 24.8661 47.9641C24.8661 44.6591 27.2389 42.3011 30.2923 42.3011C33.1034 42.3011 35.7841 44.5488 35.7841 47.3026V53.6703H35.7615Z" fill="#2A7DE1"/>
<path d="M109.306 45.3641H99.905V36.6172H94.4795V59.2227H99.905V50.5853H109.306V59.2891H114.755V36.6829H109.306V45.3641Z" fill="#2A7DE1"/>
<path d="M129.143 59.7308C122.729 59.7308 117.436 54.4876 117.436 47.8775C117.436 41.3337 122.707 36.0898 129.143 36.0898C135.558 36.0898 140.852 41.3337 140.852 47.8775C140.852 54.5095 135.558 59.7308 129.143 59.7308ZM129.143 41.7303C125.739 41.7303 122.971 44.4621 122.971 47.9658C122.971 51.5126 125.738 54.2452 129.143 54.2452C132.549 54.2452 135.317 51.5133 135.317 47.9658C135.317 44.4621 132.549 41.7303 129.143 41.7303Z" fill="#2A7DE1"/>
<path d="M158.403 43.9553C158.403 43.8231 158.425 43.691 158.425 43.5807C158.425 43.2506 158.403 42.9198 158.359 42.589C157.875 38.932 154.757 36.0898 150.978 36.0898C146.87 36.0898 143.531 39.438 143.531 43.5588C143.531 43.6471 143.531 43.7129 143.531 43.8012V59.2021H156.184C160.402 59.2021 163.807 55.721 163.807 51.4024C163.807 47.8994 161.522 44.9244 158.403 43.9546V43.9553ZM156.316 53.5398H149.045V42.8541C149.155 41.9063 149.967 41.157 150.934 41.157C151.988 41.157 152.845 42.0165 152.845 43.0739C152.845 43.515 152.692 43.9334 152.428 44.2642C152.34 44.3745 152.011 44.7491 151.967 44.7929H151.945V46.9303V49.3547L156.316 49.354C157.348 49.4424 158.14 50.3018 158.14 51.3819C158.183 52.5057 157.415 53.5412 156.316 53.5412V53.5398Z" fill="#2A7DE1"/>
<path d="M69.4375 59.2453V36.6172H74.9074V50.938L84.3532 36.6172H89.7787V59.2453H84.3532V44.9237L74.9074 59.2453H69.4375Z" fill="#2A7DE1"/>
<path d="M11.3133 47.0385L19.7697 36.6172H12.741L5.40366 46.6201V36.6172H0V59.2227H5.40366V48.2945L13.4873 59.1788L20.4293 59.2227L11.3133 47.0385Z" fill="#2A7DE1"/>
<path d="M64.714 36.6835V59.3116H59.2666V42.4787H56.9594C55.1582 42.4787 54.0384 43.9107 53.6205 45.6728C52.7199 49.4621 52.9835 52.2611 51.6657 55.3449C50.6326 57.7693 48.195 60.1258 43.9111 59.4869V53.891C45.4488 53.9129 46.5256 53.0753 47.0957 51.533C47.8645 49.4613 47.9089 46.7521 48.3698 44.262C49.2486 39.6352 52.3676 36.6602 56.6515 36.6602L64.7125 36.6821L64.714 36.6835Z" fill="#2A7DE1"/>
</svg>
