<svg width="782" height="1676" viewBox="0 0 782 1676" fill="none" xmlns="http://www.w3.org/2000/svg">
<path fill-rule="evenodd" clip-rule="evenodd" d="M32.5134 18.7716L2.46562e-05 37.5433V0L32.5134 18.7716ZM0 384.351L32.5134 365.579L1.64107e-06 346.808L0 384.351ZM68.1231 384.351L100.636 365.579L68.1231 346.808V384.351ZM168.76 365.579L136.247 384.351V346.808L168.76 365.579ZM204.37 384.351L236.884 365.579L204.37 346.808V384.351ZM305.007 365.579L272.493 384.351V346.808L305.007 365.579ZM340.617 384.351L373.13 365.579L340.617 346.808V384.351ZM441.253 365.579L408.74 384.351V346.808L441.253 365.579ZM476.864 384.351L509.377 365.579L476.864 346.808V384.351ZM577.5 365.579L544.987 384.351V346.808L577.5 365.579ZM613.11 384.351L645.623 365.579L613.11 346.808V384.351ZM713.747 365.579L681.234 384.351V346.808L713.747 365.579ZM749.357 384.351L781.87 365.579L749.357 346.808V384.351ZM32.5134 538.985L0 557.756L1.64107e-06 520.213L32.5134 538.985ZM68.1231 557.756L100.636 538.985L68.1231 520.213V557.756ZM168.76 538.985L136.247 557.756V520.213L168.76 538.985ZM204.37 557.756L236.884 538.985L204.37 520.213V557.756ZM305.007 538.985L272.493 557.756V520.213L305.007 538.985ZM340.617 557.756L373.13 538.985L340.617 520.213V557.756ZM441.253 538.985L408.74 557.756V520.213L441.253 538.985ZM476.864 557.756L509.377 538.985L476.864 520.213V557.756ZM577.5 538.985L544.987 557.756V520.213L577.5 538.985ZM613.11 557.756L645.623 538.985L613.11 520.213V557.756ZM713.747 538.985L681.234 557.756V520.213L713.747 538.985ZM749.357 557.756L781.87 538.985L749.357 520.213V557.756ZM32.5134 452.282L0 471.053L1.64107e-06 433.51L32.5134 452.282ZM68.1231 471.053L100.636 452.282L68.1231 433.51V471.053ZM168.76 452.282L136.247 471.053V433.51L168.76 452.282ZM204.37 471.053L236.884 452.282L204.37 433.51V471.053ZM305.007 452.282L272.493 471.053V433.51L305.007 452.282ZM340.617 471.053L373.13 452.282L340.617 433.51V471.053ZM441.253 452.282L408.74 471.053V433.51L441.253 452.282ZM476.864 471.053L509.377 452.282L476.864 433.51V471.053ZM577.5 452.282L544.987 471.053V433.51L577.5 452.282ZM613.11 471.053L645.623 452.282L613.11 433.51V471.053ZM713.747 452.282L681.234 471.053V433.51L713.747 452.282ZM749.357 471.053L781.87 452.282L749.357 433.51V471.053ZM32.5134 625.687L0 644.459L1.64107e-06 606.916L32.5134 625.687ZM68.1231 644.459L100.636 625.687L68.1231 606.916V644.459ZM168.76 625.687L136.247 644.459V606.916L168.76 625.687ZM204.37 644.459L236.884 625.687L204.37 606.916V644.459ZM305.007 625.687L272.493 644.459V606.916L305.007 625.687ZM340.617 644.459L373.13 625.687L340.617 606.916V644.459ZM441.253 625.687L408.74 644.459V606.916L441.253 625.687ZM476.864 644.459L509.377 625.687L476.864 606.916V644.459ZM577.5 625.687L544.987 644.459V606.916L577.5 625.687ZM613.11 644.459L645.623 625.687L613.11 606.916V644.459ZM713.747 625.687L681.234 644.459V606.916L713.747 625.687ZM749.357 644.459L781.87 625.687L749.357 606.916V644.459ZM32.5134 799.092L0 817.863L1.64107e-06 780.32L32.5134 799.092ZM68.1231 817.863L100.636 799.092L68.1231 780.32V817.863ZM168.76 799.092L136.247 817.863V780.32L168.76 799.092ZM204.37 817.863L236.884 799.092L204.37 780.32V817.863ZM305.007 799.092L272.493 817.863V780.32L305.007 799.092ZM340.617 817.863L373.13 799.092L340.617 780.32V817.863ZM441.253 799.092L408.74 817.863V780.32L441.253 799.092ZM476.864 817.863L509.377 799.092L476.864 780.32V817.863ZM577.5 799.092L544.987 817.863V780.32L577.5 799.092ZM613.11 817.863L645.623 799.092L613.11 780.32V817.863ZM713.747 799.092L681.234 817.863V780.32L713.747 799.092ZM749.357 817.863L781.87 799.092L749.357 780.32V817.863ZM32.5134 712.389L0 731.16L1.64107e-06 693.617L32.5134 712.389ZM68.1231 731.16L100.636 712.389L68.1231 693.617V731.16ZM168.76 712.389L136.247 731.16V693.617L168.76 712.389ZM204.37 731.16L236.884 712.389L204.37 693.617V731.16ZM305.007 712.389L272.493 731.16V693.617L305.007 712.389ZM340.617 731.16L373.13 712.389L340.617 693.617V731.16ZM441.253 712.389L408.74 731.16V693.617L441.253 712.389ZM476.864 731.16L509.377 712.389L476.864 693.617V731.16ZM577.5 712.389L544.987 731.16V693.617L577.5 712.389ZM613.11 731.16L645.623 712.389L613.11 693.617V731.16ZM713.747 712.389L681.234 731.16V693.617L713.747 712.389ZM749.357 731.16L781.87 712.389L749.357 693.617V731.16ZM68.1231 37.5433L100.637 18.7716L68.1231 0V37.5433ZM168.76 18.7716L136.247 37.5433V0L168.76 18.7716ZM204.37 37.5433L236.884 18.7716L204.37 0V37.5433ZM305.007 18.7716L272.493 37.5433V0L305.007 18.7716ZM340.617 37.5433L373.13 18.7716L340.617 0V37.5433ZM441.254 18.7716L408.74 37.5433V0L441.254 18.7716ZM476.864 37.5433L509.377 18.7716L476.864 0V37.5433ZM577.5 18.7716L544.987 37.5433V0L577.5 18.7716ZM613.11 37.5433L645.623 18.7716L613.11 0V37.5433ZM713.747 18.7716L681.234 37.5433V0L713.747 18.7716ZM749.357 37.5433L781.87 18.7716L749.357 0V37.5433ZM32.5134 105.472L2.46562e-05 124.244V86.7007L32.5134 105.472ZM68.1231 124.244L100.637 105.472L68.1231 86.7007V124.244ZM168.76 105.472L136.247 124.244V86.7007L168.76 105.472ZM204.37 124.244L236.884 105.472L204.37 86.7007V124.244ZM305.007 105.472L272.493 124.244V86.7007L305.007 105.472ZM340.617 124.244L373.13 105.472L340.617 86.7007V124.244ZM441.254 105.472L408.74 124.244V86.7007L441.254 105.472ZM476.864 124.244L509.377 105.472L476.864 86.7007V124.244ZM577.5 105.472L544.987 124.244V86.7007L577.5 105.472ZM613.11 124.244L645.623 105.472L613.11 86.7007V124.244ZM713.747 105.472L681.234 124.244V86.7007L713.747 105.472ZM749.357 124.244L781.87 105.472L749.357 86.7007V124.244ZM32.5134 278.876L0 297.648L1.64107e-06 260.105L32.5134 278.876ZM68.1231 297.648L100.636 278.876L68.1231 260.105V297.648ZM168.76 278.876L136.247 297.648V260.105L168.76 278.876ZM204.37 297.648L236.884 278.876L204.37 260.105V297.648ZM305.007 278.876L272.493 297.648V260.105L305.007 278.876ZM340.617 297.648L373.13 278.876L340.617 260.105V297.648ZM441.253 278.876L408.74 297.648V260.105L441.253 278.876ZM476.864 297.648L509.377 278.876L476.864 260.105V297.648ZM577.5 278.876L544.987 297.648V260.105L577.5 278.876ZM613.11 297.648L645.623 278.876L613.11 260.105V297.648ZM713.747 278.876L681.234 297.648V260.105L713.747 278.876ZM749.357 297.648L781.87 278.876L749.357 260.105V297.648ZM32.5134 192.174L2.46562e-05 210.946V173.403L32.5134 192.174ZM68.1231 210.946L100.637 192.174L68.1231 173.403V210.946ZM168.76 192.174L136.247 210.946V173.403L168.76 192.174ZM204.37 210.946L236.884 192.174L204.37 173.403V210.946ZM305.007 192.174L272.493 210.946V173.403L305.007 192.174ZM340.617 210.946L373.13 192.174L340.617 173.403V210.946ZM441.253 192.174L408.74 210.946V173.403L441.253 192.174ZM476.864 210.946L509.377 192.174L476.864 173.403V210.946ZM577.5 192.174L544.987 210.946V173.403L577.5 192.174ZM613.11 210.946L645.623 192.174L613.11 173.403V210.946ZM713.747 192.174L681.234 210.946V173.403L713.747 192.174ZM749.357 210.946L781.87 192.174L749.357 173.403V210.946ZM32.5134 1223.72L0 1242.49L1.64107e-06 1204.94L32.5134 1223.72ZM68.1231 1242.49L100.636 1223.72L68.1231 1204.94V1242.49ZM168.76 1223.72L136.247 1242.49V1204.94L168.76 1223.72ZM204.37 1242.49L236.884 1223.72L204.37 1204.94V1242.49ZM305.007 1223.72L272.493 1242.49V1204.94L305.007 1223.72ZM340.617 1242.49L373.13 1223.72L340.617 1204.94V1242.49ZM441.253 1223.72L408.74 1242.49V1204.94L441.253 1223.72ZM476.864 1242.49L509.377 1223.72L476.864 1204.94V1242.49ZM577.5 1223.72L544.987 1242.49V1204.94L577.5 1223.72ZM613.11 1242.49L645.623 1223.72L613.11 1204.94V1242.49ZM713.747 1223.72L681.234 1242.49V1204.94L713.747 1223.72ZM749.357 1242.49L781.87 1223.72L749.357 1204.94V1242.49ZM32.5134 1397.12L0 1415.89L1.64107e-06 1378.35L32.5134 1397.12ZM68.1231 1415.89L100.636 1397.12L68.1231 1378.35V1415.89ZM168.76 1397.12L136.247 1415.89V1378.35L168.76 1397.12ZM204.37 1415.89L236.884 1397.12L204.37 1378.35V1415.89ZM305.007 1397.12L272.493 1415.89V1378.35L305.007 1397.12ZM340.617 1415.89L373.13 1397.12L340.617 1378.35V1415.89ZM441.253 1397.12L408.74 1415.89V1378.35L441.253 1397.12ZM476.864 1415.89L509.377 1397.12L476.864 1378.35V1415.89ZM577.5 1397.12L544.987 1415.89V1378.35L577.5 1397.12ZM613.11 1415.89L645.623 1397.12L613.11 1378.35V1415.89ZM713.747 1397.12L681.234 1415.89V1378.35L713.747 1397.12ZM749.357 1415.89L781.87 1397.12L749.357 1378.35V1415.89ZM32.5134 1310.42L0 1329.19L1.64107e-06 1291.65L32.5134 1310.42ZM68.1231 1329.19L100.636 1310.42L68.1231 1291.65V1329.19ZM168.76 1310.42L136.247 1329.19V1291.65L168.76 1310.42ZM204.37 1329.19L236.884 1310.42L204.37 1291.65V1329.19ZM305.007 1310.42L272.493 1329.19V1291.65L305.007 1310.42ZM340.617 1329.19L373.13 1310.42L340.617 1291.65V1329.19ZM441.253 1310.42L408.74 1329.19V1291.65L441.253 1310.42ZM476.864 1329.19L509.377 1310.42L476.864 1291.65V1329.19ZM577.5 1310.42L544.987 1329.19V1291.65L577.5 1310.42ZM613.11 1329.19L645.623 1310.42L613.11 1291.65V1329.19ZM713.747 1310.42L681.234 1329.19V1291.65L713.747 1310.42ZM749.357 1329.19L781.87 1310.42L749.357 1291.65V1329.19ZM32.5134 1483.82L0 1502.6L1.64107e-06 1465.05L32.5134 1483.82ZM68.1231 1502.6L100.636 1483.82L68.1231 1465.05V1502.6ZM168.76 1483.82L136.247 1502.6V1465.05L168.76 1483.82ZM204.37 1502.6L236.884 1483.82L204.37 1465.05V1502.6ZM305.007 1483.82L272.493 1502.6V1465.05L305.007 1483.82ZM340.617 1502.6L373.13 1483.82L340.617 1465.05V1502.6ZM441.253 1483.82L408.74 1502.6V1465.05L441.253 1483.82ZM476.864 1502.6L509.377 1483.82L476.864 1465.05V1502.6ZM577.5 1483.82L544.987 1502.6V1465.05L577.5 1483.82ZM613.11 1502.6L645.623 1483.82L613.11 1465.05V1502.6ZM713.747 1483.82L681.234 1502.6V1465.05L713.747 1483.82ZM749.357 1502.6L781.87 1483.82L749.357 1465.05V1502.6ZM32.5134 1657.23L0 1676L1.64107e-06 1638.46L32.5134 1657.23ZM68.1231 1676L100.636 1657.23L68.1231 1638.46V1676ZM168.76 1657.23L136.247 1676V1638.46L168.76 1657.23ZM204.37 1676L236.884 1657.23L204.37 1638.46V1676ZM305.007 1657.23L272.493 1676V1638.46L305.007 1657.23ZM340.617 1676L373.13 1657.23L340.617 1638.46V1676ZM441.253 1657.23L408.74 1676V1638.46L441.253 1657.23ZM476.864 1676L509.377 1657.23L476.864 1638.46V1676ZM577.5 1657.23L544.987 1676V1638.46L577.5 1657.23ZM613.11 1676L645.623 1657.23L613.11 1638.46V1676ZM713.747 1657.23L681.234 1676V1638.46L713.747 1657.23ZM749.357 1676L781.87 1657.23L749.357 1638.46V1676ZM32.5134 1570.53L0 1589.3L1.64107e-06 1551.75L32.5134 1570.53ZM68.1231 1589.3L100.636 1570.53L68.1231 1551.75V1589.3ZM168.76 1570.53L136.247 1589.3V1551.75L168.76 1570.53ZM204.37 1589.3L236.884 1570.53L204.37 1551.75V1589.3ZM305.007 1570.53L272.493 1589.3V1551.75L305.007 1570.53ZM340.617 1589.3L373.13 1570.53L340.617 1551.75V1589.3ZM441.253 1570.53L408.74 1589.3V1551.75L441.253 1570.53ZM476.864 1589.3L509.377 1570.53L476.864 1551.75V1589.3ZM577.5 1570.53L544.987 1589.3V1551.75L577.5 1570.53ZM613.11 1589.3L645.623 1570.53L613.11 1551.75V1589.3ZM713.747 1570.53L681.234 1589.3V1551.75L713.747 1570.53ZM749.357 1589.3L781.87 1570.53L749.357 1551.75V1589.3ZM32.5134 876.908L0 895.679L1.64107e-06 858.136L32.5134 876.908ZM68.1231 895.679L100.636 876.908L68.1231 858.136V895.679ZM168.76 876.908L136.247 895.679V858.136L168.76 876.908ZM204.37 895.679L236.884 876.908L204.37 858.136V895.679ZM305.007 876.908L272.493 895.679V858.136L305.007 876.908ZM340.617 895.679L373.13 876.908L340.617 858.136V895.679ZM441.254 876.908L408.74 895.679V858.136L441.254 876.908ZM476.864 895.679L509.377 876.908L476.864 858.136V895.679ZM577.5 876.908L544.987 895.679V858.136L577.5 876.908ZM613.11 895.679L645.623 876.908L613.11 858.136V895.679ZM713.747 876.908L681.234 895.679V858.136L713.747 876.908ZM749.357 895.679L781.87 876.908L749.357 858.136V895.679ZM32.5134 963.608L0 982.38L1.64107e-06 944.836L32.5134 963.608ZM68.1231 982.38L100.636 963.608L68.1231 944.836V982.38ZM168.76 963.608L136.247 982.38V944.836L168.76 963.608ZM204.37 982.38L236.884 963.608L204.37 944.836V982.38ZM305.007 963.608L272.493 982.38V944.836L305.007 963.608ZM340.617 982.38L373.13 963.608L340.617 944.836V982.38ZM441.254 963.608L408.74 982.38V944.836L441.254 963.608ZM476.864 982.38L509.377 963.608L476.864 944.836V982.38ZM577.5 963.608L544.987 982.38V944.836L577.5 963.608ZM613.11 982.38L645.623 963.608L613.11 944.836V982.38ZM713.747 963.608L681.234 982.38V944.836L713.747 963.608ZM749.357 982.38L781.87 963.608L749.357 944.836V982.38ZM32.5134 1137.01L0 1155.78L1.64107e-06 1118.24L32.5134 1137.01ZM68.1231 1155.78L100.636 1137.01L68.1231 1118.24V1155.78ZM168.76 1137.01L136.247 1155.78V1118.24L168.76 1137.01ZM204.37 1155.78L236.884 1137.01L204.37 1118.24V1155.78ZM305.007 1137.01L272.493 1155.78V1118.24L305.007 1137.01ZM340.617 1155.78L373.13 1137.01L340.617 1118.24V1155.78ZM441.253 1137.01L408.74 1155.78V1118.24L441.253 1137.01ZM476.864 1155.78L509.377 1137.01L476.864 1118.24V1155.78ZM577.5 1137.01L544.987 1155.78V1118.24L577.5 1137.01ZM613.11 1155.78L645.623 1137.01L613.11 1118.24V1155.78ZM713.747 1137.01L681.234 1155.78V1118.24L713.747 1137.01ZM749.357 1155.78L781.87 1137.01L749.357 1118.24V1155.78ZM32.5134 1050.31L0 1069.08L1.64107e-06 1031.54L32.5134 1050.31ZM68.1231 1069.08L100.636 1050.31L68.1231 1031.54V1069.08ZM168.76 1050.31L136.247 1069.08V1031.54L168.76 1050.31ZM204.37 1069.08L236.884 1050.31L204.37 1031.54V1069.08ZM305.007 1050.31L272.493 1069.08V1031.54L305.007 1050.31ZM340.617 1069.08L373.13 1050.31L340.617 1031.54V1069.08ZM441.253 1050.31L408.74 1069.08V1031.54L441.253 1050.31ZM476.864 1069.08L509.377 1050.31L476.864 1031.54V1069.08ZM577.5 1050.31L544.987 1069.08V1031.54L577.5 1050.31ZM613.11 1069.08L645.623 1050.31L613.11 1031.54V1069.08ZM713.747 1050.31L681.234 1069.08V1031.54L713.747 1050.31ZM749.357 1069.08L781.87 1050.31L749.357 1031.54V1069.08Z" fill="#524C69"/>
</svg>
