<svg width="396" height="348" viewBox="0 0 396 348" fill="none" xmlns="http://www.w3.org/2000/svg">
<path d="M9.34504 287.519V273.879H13.7403L22.3288 287.519H32.6849L21.0655 269.383L32.1794 252.157H21.8232L13.7911 265.544H9.34563V252.157H0V287.519H9.34563H9.34504ZM46.182 287.519L48.203 281.962H62.8534L64.8738 287.519H74.4723L60.5796 252.157H50.4762L36.5842 287.519H46.182ZM54.6187 264.18C54.9217 263.321 55.2246 262.462 55.5282 260.593C55.8312 262.462 56.1342 263.321 56.4377 264.18L60.0752 274.384H50.9824L54.6199 264.18H54.6187ZM82.0592 252.157V287.519H107.57V279.184H91.4043V252.157H82.0586H82.0592ZM115.764 252.157V287.519H125.11V252.157H115.764ZM145.326 287.519V273.071C145.326 271.151 145.276 268.929 145.125 267.262L158.967 287.519H167.807V252.157H158.461V266.604C158.461 268.575 158.512 270.797 158.663 272.464L144.821 252.157H135.981V287.519H145.326ZM178.677 252.157V287.519H188.023V252.157H178.677ZM208.239 287.519V273.071C208.239 271.151 208.189 268.929 208.038 267.262L221.88 287.519H230.72V252.157H221.374V266.604C221.374 268.575 221.425 270.797 221.576 272.464L207.734 252.157H198.894V287.519H208.239ZM239.873 269.838C239.873 282.669 249.421 288.276 259.474 288.276C263.465 288.276 267.557 287.418 271.194 285.902V268.07H262.353V279.992C261.747 280.144 260.939 280.244 259.928 280.244C255.887 280.244 249.471 278.577 249.471 269.838C249.471 262.564 254.876 259.634 260.585 259.634C264.121 259.634 267.707 260.643 270.335 262.463V253.622C267.001 252.208 263.162 251.399 259.373 251.399C249.522 251.399 239.873 256.653 239.873 269.839V269.838ZM290.45 287.519V276.001H294.492L302.928 287.519H313.486L303.736 274.687C307.625 273.121 310.505 269.938 310.505 264.079C310.505 254.733 303.18 252.157 296.007 252.157H281.104V287.519H290.45H290.45ZM290.45 260.24H296.411C299.088 260.24 300.907 261.603 300.907 264.331C300.907 267.059 299.088 268.423 296.411 268.423H290.45V260.239V260.24ZM327.539 287.519L329.56 281.962H344.211L346.231 287.519H355.83L341.937 252.157H331.834L317.942 287.519H327.539ZM335.976 264.18C336.279 263.321 336.582 262.462 336.886 260.593C337.189 262.462 337.492 263.321 337.795 264.18L341.433 274.384H332.34L335.977 264.18H335.976ZM363.417 252.157V287.519H377.511C390.14 287.519 396 280.143 396 269.838C396 259.532 390.14 252.157 377.511 252.157H363.417ZM386.402 269.838C386.402 276.456 383.118 279.436 377.511 279.436H372.762V260.24H377.511C383.118 260.24 386.402 263.22 386.402 269.838Z" fill="white"/>
<path d="M142.801 329.572C142.801 342.201 152.45 347.506 162.149 347.506C165.887 347.506 169.373 346.748 172.455 345.283V336.19C170.434 338.16 167.1 339.271 163.462 339.271C157.956 339.271 152.399 336.442 152.399 329.572C152.399 321.894 157.956 318.812 163.563 318.812C166.797 318.812 170.03 319.873 172.202 321.691V312.85C169.12 311.386 165.533 310.628 161.947 310.628C152.399 310.628 142.801 316.235 142.801 329.572ZM203.937 311.386V332.754C203.937 337.503 201.361 339.17 197.369 339.17C193.379 339.17 190.802 337.503 190.802 332.754V311.386H181.456V333.26C181.456 343.919 189.539 347.506 197.369 347.506C205.2 347.506 213.283 343.919 213.283 333.26V311.386H203.937ZM223.8 311.386V346.748H233.146V335.634H237.794C246.533 335.584 253.201 332.805 253.201 323.51C253.201 314.215 246.533 311.386 237.794 311.386H223.8V311.386ZM243.602 323.509C243.602 326.692 241.077 327.551 238.248 327.551H233.145V319.468H238.248C241.077 319.468 243.602 320.327 243.602 323.509V323.509Z" fill="white"/>
<path fill-rule="evenodd" clip-rule="evenodd" d="M157.428 92.3305L171.748 100.598V179.154L186.068 170.887V198.444L217.094 216.358L248.12 198.444C248.12 182.824 248.12 167.203 248.12 151.582L242.153 158.472H236.187L230.221 165.361H224.254C224.254 176.848 224.254 188.336 224.254 199.822L209.934 191.555V86.81L224.254 95.0776V137.803L248.121 124.023V88.188L217.095 70.2748L186.069 88.188V88.1964L171.749 79.9294L195.615 66.1503V16.5358L171.749 30.3149V71.6618L157.429 79.9282V13.7791L133.562 0V140.571L157.429 154.35V92.3299L157.428 92.3305Z" fill="#F00000"/>
</svg>
