<svg width="200" height="176" viewBox="0 0 200 176" fill="none" xmlns="http://www.w3.org/2000/svg">
<path d="M4.71972 145.212V138.323H6.93953L11.2772 145.212H16.5075L10.6391 136.052L16.2522 127.352H11.0218L6.96518 134.113H4.72001V127.352H0V145.212H4.72001H4.71972ZM23.3242 145.212L24.345 142.405H31.7442L32.7646 145.212H37.6123L30.5958 127.352H25.493L18.4769 145.212H23.3242ZM27.5852 133.425C27.7382 132.991 27.8912 132.557 28.0446 131.613C28.1976 132.557 28.3506 132.991 28.5039 133.425L30.341 138.578H25.7487L27.5858 133.425H27.5852ZM41.444 127.352V145.212H54.3283V141.002H46.1638V127.352H41.4437H41.444ZM58.4668 127.352V145.212H63.1868V127.352H58.4668ZM73.397 145.212V137.915C73.397 136.945 73.3717 135.823 73.2953 134.981L80.2862 145.212H84.7509V127.352H80.0308V134.649C80.0308 135.644 80.0565 136.767 80.1329 137.609L73.142 127.352H68.677V145.212H73.397ZM90.2411 127.352V145.212H94.9611V127.352H90.2411ZM105.171 145.212V137.915C105.171 136.945 105.146 135.823 105.07 134.981L112.061 145.212H116.525V127.352H111.805V134.649C111.805 135.644 111.831 136.767 111.907 137.609L104.916 127.352H100.451V145.212H105.171ZM121.148 136.282C121.148 142.763 125.97 145.594 131.047 145.594C133.063 145.594 135.13 145.161 136.967 144.395V135.389H132.502V141.41C132.195 141.487 131.787 141.538 131.277 141.538C129.236 141.538 125.995 140.696 125.995 136.282C125.995 132.608 128.725 131.128 131.608 131.128C133.395 131.128 135.206 131.638 136.533 132.557V128.092C134.849 127.378 132.91 126.97 130.996 126.97C126.021 126.97 121.148 129.623 121.148 136.282V136.282ZM146.692 145.212V139.395H148.733L152.994 145.212H158.326L153.402 138.731C155.366 137.94 156.821 136.333 156.821 133.374C156.821 128.653 153.121 127.352 149.498 127.352H141.972V145.212H146.692H146.692ZM146.692 131.434H149.703C151.055 131.434 151.973 132.123 151.973 133.501C151.973 134.879 151.055 135.567 149.703 135.567H146.692V131.434V131.434ZM165.424 145.212L166.445 142.405H173.844L174.864 145.212H179.712L172.695 127.352H167.593L160.577 145.212H165.424ZM169.685 133.425C169.838 132.991 169.991 132.557 170.144 131.613C170.297 132.557 170.45 132.991 170.604 133.425L172.441 138.578H167.848L169.686 133.425H169.685ZM183.544 127.352V145.212H190.662C197.04 145.212 200 141.487 200 136.282C200 131.077 197.04 127.352 190.662 127.352H183.544ZM195.153 136.282C195.153 139.624 193.494 141.129 190.662 141.129H188.263V131.434H190.662C193.494 131.434 195.153 132.94 195.153 136.282Z" fill="#322D46"/>
<path d="M72.1211 166.451C72.1211 172.829 76.9944 175.508 81.8931 175.508C83.7809 175.508 85.5414 175.126 87.0978 174.386V169.794C86.0771 170.789 84.3933 171.35 82.5562 171.35C79.775 171.35 76.9688 169.921 76.9688 166.451C76.9688 162.573 79.7753 161.017 82.6072 161.017C84.2403 161.017 85.8731 161.552 86.9702 162.471V158.006C85.4137 157.266 83.602 156.883 81.7908 156.883C76.9688 156.883 72.1211 159.715 72.1211 166.451ZM102.998 157.266V168.058C102.998 170.457 101.697 171.298 99.6809 171.298C97.6654 171.298 96.3644 170.456 96.3644 168.058V157.266H91.644V168.313C91.644 173.697 95.7263 175.508 99.6809 175.508C103.636 175.508 107.718 173.697 107.718 168.313V157.266H102.998ZM113.03 157.266V175.126H117.75V169.513H120.097C124.511 169.487 127.879 168.084 127.879 163.389C127.879 158.695 124.511 157.266 120.097 157.266H113.03V157.266ZM123.031 163.389C123.031 164.997 121.755 165.43 120.327 165.43H117.749V161.348H120.327C121.755 161.348 123.031 161.782 123.031 163.389V163.389Z" fill="#322D46"/>
<path fill-rule="evenodd" clip-rule="evenodd" d="M79.5082 46.6316L86.7405 50.8071V90.4816L93.9728 86.3064V100.224L109.642 109.271L125.312 100.224C125.312 92.3354 125.312 84.4457 125.312 76.5567L122.299 80.0363H119.286L116.272 83.5159H113.259C113.259 89.3173 113.259 95.119 113.259 100.92L106.027 96.7448V43.8434L113.259 48.019V69.5973L125.313 62.6381V44.5394L109.643 35.4923L93.9734 44.5394V44.5436L86.7411 40.3684L98.7948 33.4092V8.35141L86.7411 15.3106V36.1928L79.5088 40.3678V6.95915L67.4551 0V70.9952L79.5088 77.9547V46.6313L79.5082 46.6316Z" fill="#F00000"/>
</svg>
