<svg width="496" height="211" viewBox="0 0 496 211" fill="none" xmlns="http://www.w3.org/2000/svg">
<path d="M120.37 58.67V45.4196H124.64L132.983 58.67H143.044L131.756 41.0516L142.553 24.3162H132.492L124.689 37.3216H120.37V24.3162H111.291V58.67H120.37H120.37ZM156.156 58.67L158.12 53.2715H172.352L174.315 58.67H183.64L170.143 24.3162H160.328L146.832 58.67H156.156ZM164.352 35.9967C164.647 35.1625 164.941 34.3277 165.236 32.5117C165.53 34.3277 165.825 35.1625 166.12 35.9967L169.653 45.9102H160.82L164.354 35.9967H164.352ZM191.011 24.3162V58.67H215.794V50.5725H200.089V24.3162H191.01H191.011ZM223.755 24.3162V58.67H232.834V24.3162H223.755ZM252.474 58.67V44.6341C252.474 42.7694 252.425 40.6104 252.278 38.9906L265.725 58.67H274.313V24.3162H265.234V38.352C265.234 40.2661 265.283 42.4251 265.43 44.0448L251.983 24.3162H243.394V58.67H252.474ZM284.874 24.3162V58.67H293.953V24.3162H284.874ZM313.593 58.67V44.6341C313.593 42.7694 313.544 40.6104 313.397 38.9906L326.845 58.67H335.433V24.3162H326.353V38.352C326.353 40.2661 326.403 42.4251 326.55 44.0448L313.102 24.3162H304.514V58.67H313.593ZM344.325 41.4934C344.325 53.9589 353.6 59.4061 363.367 59.4061C367.244 59.4061 371.219 58.5719 374.753 57.0996V39.7755H366.164V51.358C365.575 51.5055 364.79 51.603 363.808 51.603C359.882 51.603 353.649 49.9833 353.649 41.4934C353.649 34.4264 358.9 31.5799 364.446 31.5799C367.882 31.5799 371.366 32.5611 373.918 34.3283V25.7396C370.679 24.3661 366.949 23.5806 363.269 23.5806C353.699 23.5806 344.325 28.6842 344.325 41.494V41.4934ZM393.46 58.67V47.4806H397.386L405.582 58.67H415.839L406.367 46.2045C410.146 44.6829 412.943 41.5909 412.943 35.8986C412.943 26.8189 405.827 24.3162 398.858 24.3162H384.38V58.67H393.459H393.46ZM393.46 32.1686H399.251C401.852 32.1686 403.618 33.4934 403.618 36.1436C403.618 38.7938 401.852 40.1186 399.251 40.1186H393.46V32.1681V32.1686ZM429.492 58.67L431.455 53.2715H445.688L447.651 58.67H456.975L443.479 24.3162H433.664L420.168 58.67H429.492ZM437.688 35.9967C437.982 35.1625 438.277 34.3277 438.571 32.5117C438.866 34.3277 439.16 35.1625 439.455 35.9967L442.989 45.9102H434.155L437.689 35.9967H437.688ZM464.346 24.3162V58.67H478.038C490.308 58.67 496 51.5049 496 41.4934C496 31.4813 490.308 24.3162 478.038 24.3162H464.346ZM486.676 41.4934C486.676 47.9224 483.486 50.8175 478.038 50.8175H473.425V32.1686H478.038C483.486 32.1686 486.676 35.0638 486.676 41.4934Z" fill="white"/>
<path d="M146.069 99.5245C146.069 111.794 155.443 116.947 164.866 116.947C168.498 116.947 171.884 116.211 174.878 114.788V105.954C172.914 107.868 169.676 108.947 166.142 108.947C160.792 108.947 155.394 106.199 155.394 99.5245C155.394 92.0651 160.793 89.0712 166.24 89.0712C169.381 89.0712 172.522 90.1017 174.632 91.8683V83.2797C171.638 81.8568 168.153 81.1206 164.669 81.1206C155.394 81.1206 146.069 86.5679 146.069 99.5245ZM205.462 81.8567V102.616C205.462 107.23 202.959 108.849 199.082 108.849C195.205 108.849 192.702 107.229 192.702 102.616V81.8567H183.623V103.107C183.623 113.462 191.475 116.947 199.082 116.947C206.689 116.947 214.542 113.462 214.542 103.107V81.8567H205.462ZM224.759 81.8567V116.211H233.838V105.414H238.354C246.844 105.365 253.322 102.665 253.322 93.6355C253.322 84.6051 246.844 81.8573 238.354 81.8573H224.759V81.8567ZM243.997 93.6349C243.997 96.7269 241.543 97.5611 238.795 97.5611H233.838V89.7086H238.795C241.543 89.7086 243.997 90.5429 243.997 93.6343V93.6349Z" fill="white"/>
<path fill-rule="evenodd" clip-rule="evenodd" d="M23.1847 89.698L37.0964 97.7299V174.046L51.008 166.014V192.786L81.1494 210.189L111.291 192.786C111.291 177.611 111.291 162.435 111.291 147.26L105.495 153.954H99.6985L93.9023 160.647H88.1061C88.1061 171.806 88.1061 182.966 88.1061 194.125L74.1945 186.093V84.3349L88.1061 92.3668V133.874L111.292 120.487V85.6737L81.1506 68.2711L51.0092 85.6737V85.6818L37.0975 77.6505L60.2834 64.2642V16.0643L37.0975 29.4506V69.6186L23.1859 77.6493V13.3863L0 0V136.563L23.1859 149.949V89.6974L23.1847 89.698Z" fill="#F00000"/>
</svg>
