<svg xmlns="http://www.w3.org/2000/svg" width="31" height="30" fill="none" xmlns:v="https://vecta.io/nano"><path fill-rule="evenodd" d="M13.257 15.759l-2.588-.056.02-3.107 2.596-.004.013-2.985c.026-.438.17-.808.353-1.155.214-.405.384-.526.652-.813.392-.421 1.199-.939 2.027-.969l2.974.04.002 2.668c-1.138.198-2.131-.304-2.737.392-.405.465-.299 2.17-.237 2.884l2.973.001-.35 2.956c-.564.222-1.939-.029-2.67.072l-.02 7.653h-3.014l.004-7.575h0zM0 14.533c0 3.179.309 4.148 1.391 6.809 1.05 2.584 3.614 5.206 6.037 6.629C9.993 29.479 12.435 30 15.467 30c2.616 0 5.113-.888 7.063-2.003 1.837-1.051 3.52-2.61 4.736-4.33a15.11 15.11 0 0 0 2.294-4.972c.725-2.855.562-5.955-.402-8.72-.17-.488-.377-.893-.55-1.317-.181-.446-.388-.795-.613-1.187-.64-1.118-1.473-2.18-2.38-3.087C23.013 1.78 19.254 0 15.467 0c-3.079 0-5.38.507-7.997 2.003-.372.213-.727.447-1.097.703-1.37.947-2.684 2.277-3.639 3.627C1.145 8.581 0 11.581 0 14.533h0z" fill="#fff"/></svg>