<svg xmlns="http://www.w3.org/2000/svg" width="30" height="30" fill="none" xmlns:v="https://vecta.io/nano"><path fill-rule="evenodd" d="M15 0c8.284 0 15 6.716 15 15s-6.716 15-15 15S0 23.284 0 15 6.716 0 15 0zm3.752 10.615c.091.852 1.515.767 1.416-.183-.096-.914-1.521-.808-1.416.183zm-5.616 6.189a2.91 2.91 0 0 1-.577-.956c-.485-1.34.259-2.795 1.6-3.279 1.047-.378 2.193.09 2.704.64.535.576.949 1.715.536 2.735-.687 1.697-2.975 2.246-4.264.86zm-.831-5.088c-.157.13-.535.512-.655.674-.44.587-.576.97-.832 1.79-.046.41-.089.728-.058 1.156.4 5.583 9.655 4.917 8.34-1.469-.528-1.579-1.403-2.41-2.957-2.959-1.351-.303-2.751-.088-3.837.809zM8.53 17.25l-.001-3.161.001-2.099c.023-.865.239-1.582.659-2.126.178-.231.469-.518.706-.692.322-.236.525-.289.895-.466.985-.248 2.101-.164 3.148-.162 1.175.003 4.392-.143 5.385.209a3.42 3.42 0 0 1 1.912 1.881c.38 1.001.223 4.243.225 5.434.001.985.117 2.291-.174 3.149-.257.857-1.309 2.066-2.279 2.112-.51.301-2.359.139-3.081.147h-3.172c-1.59.006-2.36-.082-3.253-.972-.887-.885-.979-1.672-.972-3.253zm.824-9.947c-.506.433-.964.485-1.714 1.545-.398.563-.533.936-.775 1.568-.184 1.02-.188 1.706-.179 2.776v2.01 1.938c.001.892-.029 1.572.181 2.411.603 2.026 2.123 3.404 4.454 3.746 2.546.027 5.065.02 7.611-.032.636-.09.926-.272 1.459-.432.769-.516 1.126-.656 1.762-1.404.651-.765.694-1.186 1.072-2.195.086-1.231.09-2.315.093-3.562V12.59c.012-2.056-.437-3.337-1.499-4.403-1.069-1.073-2.358-1.511-4.424-1.499h-5.376c-.524.002-1.019.045-1.508.173-.477.126-.754.305-1.157.442z" fill="#fff"/></svg>