<svg xmlns="http://www.w3.org/2000/svg" width="30" height="30" fill="none" xmlns:v="https://vecta.io/nano"><path fill-rule="evenodd" d="M12.237 21.858l.174-2.522.104-1.261c.032-.085.54-.548.648-.635l1.427-1.271c.149-.137.202-.219.356-.345.601-.491 1.159-1.063 1.72-1.561l2.82-2.526c.343-.469-.49-.135-.637-.038l-8.159 5.142c-.408.259-.509.111-1.004-.042l-3.033-.95c-1.058-.381-.366-.957.31-1.213l13.45-5.183c.564-.215 1.461-.735 1.872-.097.294.456-.076 1.7-.196 2.241l-1.868 8.798c-.437 2.134-.467 3.07-2.371 1.6l-1.517-1.119-1.507-1.114c-.792.498-1.708 2.024-2.588 2.096zM0 14.531c0 2.231.138 3.468.856 5.53.349 1.002.668 1.575 1.156 2.477.113.209.217.349.334.545.481.805 1.392 1.895 2.033 2.537a14.65 14.65 0 0 0 1.948 1.626 13.85 13.85 0 0 0 2.285 1.348C10 29.278 12.409 30 14.473 30h.079c1.654 0 2.446-.015 4.117-.433l1.393-.423c1.922-.67 3.102-1.499 4.606-2.659C27.674 24.168 30 19.471 30 15.527c0-2.706-.319-4.654-1.386-6.876-1.623-3.379-3.915-5.573-7.227-7.246C19.803.606 17.324 0 15.527 0c-2.258 0-3.491.125-5.589.856-.418.146-.907.339-1.286.53l-1.735.96C4.456 3.816 2.663 6.12 1.386 8.652.583 10.245 0 12.728 0 14.531h0z" fill="#fff"/></svg>