<svg xmlns="http://www.w3.org/2000/svg" width="31" height="30" fill="none" xmlns:v="https://vecta.io/nano"><path fill-rule="evenodd" d="M18.003 18.493c.047 1.088-.597 2.269-1.092 2.885-2.189 2.725-5.939 2.452-8.007.12-1.972-2.223-1.517-6.273 1.462-7.866 1.155-.617 1.882-.645 3.336-.645l-.022 2.667c-1.22 0-2.076.11-2.676.817-.478.563-.867 1.587-.493 2.551.693 1.788 2.914 2.234 4.261.75.682-.752.594-1.732.594-2.905V6.669l2.667.031a5.79 5.79 0 0 0 .428 1.705c.606 1.397 1.482 2.006 2.973 2.356.348.082.814.07.866.239v2.546c-1.501-.05-3.211-.623-4.137-1.355-.101.1-.04-.036-.089.145l-.007.599-.065 5.559h0zM0 14.533c0 3.179.309 4.148 1.391 6.809 1.05 2.584 3.614 5.206 6.038 6.629C9.993 29.479 12.435 30 15.467 30c2.616 0 5.113-.888 7.063-2.003 1.838-1.051 3.52-2.61 4.736-4.33 1.049-1.483 1.84-3.185 2.294-4.972.726-2.855.562-5.955-.402-8.72-.17-.488-.377-.893-.55-1.317-.181-.446-.388-.795-.613-1.187-.64-1.118-1.473-2.18-2.38-3.087C23.013 1.78 19.254 0 15.467 0c-3.079 0-5.38.507-7.997 2.003-.372.213-.727.447-1.097.703-1.37.947-2.684 2.277-3.639 3.627C1.145 8.581 0 11.581 0 14.533h0z" fill="#fff"/></svg>