<svg xmlns="http://www.w3.org/2000/svg" width="31" height="30" fill="none" xmlns:v="https://vecta.io/nano"><path fill-rule="evenodd" d="M9.503 10.498c.58.423 1.124.805 1.846 1.152.926.445 1.949.796 3.057.756.584-.021.443-.138.455-.265.05-.507-.019-.829.113-1.364.381-1.536 1.661-2.585 3.56-2.448 1.228.089 1.837.842 2.05.953.631.329 1.85-.413 2.282-.608-.05.451-.291.745-.527.998l-.402.399c-.166.149-.236.151-.395.313.638.065 1.171-.17 1.755-.26-.219.527-.984 1.237-1.6 1.381.09 2.091-.355 3.851-1.216 5.44-.807 1.489-1.871 2.579-3.187 3.416-2.913 1.853-7.475 1.578-10.548-.004 1.418-.229 2.271-.045 3.823-.792.368-.177.635-.428.921-.549-.076-.069-.026-.037-.139-.094-.104-.052-.026-.017-.154-.055-.08-.024-.187-.041-.267-.063-1.074-.292-2.387-1.233-2.455-2.313.42.137 1.003.142 1.439-.042-1.08-.624-2.959-1.715-2.56-3.291a2.61 2.61 0 0 0 1.537.317c-.176-.308-.497-.514-.731-.831-.763-1.034-.919-2.61-.298-3.492l1.643 1.347h0zM0 14.533c0 3.179.309 4.148 1.391 6.809 1.05 2.584 3.614 5.206 6.037 6.629C9.993 29.479 12.435 30 15.467 30c2.616 0 5.113-.888 7.063-2.003 1.837-1.051 3.52-2.61 4.736-4.33a15.11 15.11 0 0 0 2.294-4.972c.725-2.855.562-5.955-.402-8.72-.17-.488-.377-.893-.55-1.317-.181-.446-.388-.795-.613-1.187-.64-1.118-1.473-2.18-2.38-3.087C23.013 1.78 19.254 0 15.467 0c-3.079 0-5.38.507-7.997 2.003-.372.213-.727.447-1.097.703-1.37.947-2.684 2.277-3.639 3.627C1.145 8.581 0 11.581 0 14.533h0z" fill="#fff"/></svg>