<svg xmlns="http://www.w3.org/2000/svg" width="30" height="30" fill="none" xmlns:v="https://vecta.io/nano"><path fill-rule="evenodd" d="M7.91 15.059c0-2.33-.263-4.421 1.537-6.256.74-.755 2.156-1.654 3.619-1.654h3.867c1.91 0 3.899 1.424 4.672 3.238.667 1.566.485 2.954.485 4.672 0 1.386-.595 2.632-1.221 3.408-2.551 3.156-6.359 1.58-7.145 2.113-.981.666-2.673 3.404-2.653 1.748l.003-2.347c-.903-.478-1.589-.96-2.193-1.85-.504-.744-.971-1.854-.971-3.071zm7.559-3.633c-.087.362-.178.436.46.536.201.032.421.135.547.273.499.547.015.863.633 1.007.401-.349.101-.963-.107-1.241-.291-.388-.979-.791-1.534-.575h0zm-.234-1.055c-.09.376-.083.113 0 .469.406.095.808.009 1.19.158.621.243 1.134.728 1.306 1.389.198.762-.095 1.089.375 1.089.395 0 .254-.853.191-1.128-.373-1.621-2.208-2.309-3.062-1.977h0zm0-1.055c-.09.376-.083.113 0 .469.661.154 1.548-.072 2.534.806a3.23 3.23 0 0 1 .749.95c.584 1.137.245 1.781.233 2.346.121.081.152.176.293.176.443 0 .352-1.034.352-1.465 0-.483-.22-.966-.39-1.309-.112-.225-.18-.364-.33-.549-.144-.176-.241-.321-.406-.473-.766-.705-2.271-1.247-3.033-.951h0zm-4.629 2.52c0 1.145.344 1.681.897 2.618.442.75 1.549 1.984 2.266 2.538l.94.7c.778.464 2.132 1.244 3.013.674.246-.159 1.145-.964 1.145-1.491 0-.496-1.044-1.506-1.428-1.795-.394-.297-.785-.212-1.08.107-.276.298-.268.75-.89.75-.901 0-3.052-2.133-2.069-2.948.031-.026 1.506-.55.472-1.55-.677-.654-.865-1.303-1.744-1.303-.336 0-1.523 1.017-1.523 1.699h0zM14.353 0h1.356a14.94 14.94 0 0 1 3.007.444c.833.212 1.936.59 2.671.962l1.769.985c.8.5 1.818 1.342 2.464 1.989 1.266 1.266 2.21 2.638 2.994 4.272C29.681 10.873 30 12.822 30 15.527c0 1.828-.611 4.247-1.405 5.86-1.641 3.331-3.991 5.664-7.246 7.226C19.138 29.675 17.165 30 14.473 30c-3.636 0-7.515-1.802-10.093-4.38-1.265-1.265-2.211-2.64-2.994-4.272C.326 19.141 0 17.162 0 14.473c0-2.735 1.179-6.032 2.745-8.154.512-.694 1.029-1.333 1.635-1.939C7.033 1.727 10.616.169 14.353 0h0z" fill="#fff"/></svg>