<svg xmlns="http://www.w3.org/2000/svg" width="30" height="30" fill="none" xmlns:v="https://vecta.io/nano"><path fill-rule="evenodd" d="M11.836 10.781c0-.191.377-.468.531-.524.498-.182 3.279-.204 3.848.071.337.162.423.561.428 1.037l-.061 2.815c0 .806.263 1.649 1.021.669.332-.43.521-.588.879-1.114.657-.964.896-1.662 1.341-2.643.111-.245.237-.487.568-.487h3.34c1.485 0-.2 2.239-.552 2.729-.383.533-1.85 2.236-1.85 2.896 0 .25.127.332.302.519l.028.031 1.395 1.418c.273.353.861.866 1.204 1.55.322.641-.086 1.111-.819 1.111h-2.52c-1.752 0-2.821-2.782-3.701-2.476-.169.059-.255.162-.318.332-.381 1.04-.013 2.085-1.079 2.085-1.921 0-2.928-.056-4.594-1.206-1.52-1.05-3.196-3.558-4.098-5.336l-1.503-3.243c0-.14.081-.317.202-.384.309-.17 1.988-.047 2.203-.029 1.233.102 1.286-.373 1.939 1.225.265.648.721 1.457 1.117 2.047.497.74 1.464 2.354 1.78.749.129-.656.163-2.685-.108-3.182-.338-.619-.921-.318-.921-.661h0zM14.353 0h1.356c1.003.045 2.01.191 3.007.444.833.212 1.936.59 2.671.962l1.769.985c.8.5 1.818 1.342 2.464 1.989 1.266 1.266 2.21 2.638 2.994 4.272C29.681 10.873 30 12.822 30 15.527c0 1.828-.611 4.247-1.405 5.86-1.642 3.332-3.99 5.663-7.246 7.226C19.138 29.675 17.165 30 14.473 30c-3.636 0-7.515-1.802-10.093-4.38-1.265-1.265-2.211-2.64-2.994-4.272C.326 19.141 0 17.162 0 14.473c0-2.736 1.179-6.032 2.745-8.154.512-.694 1.029-1.333 1.635-1.939C7.033 1.727 10.616.169 14.353 0h0z" fill="#fff"/></svg>