<svg xmlns="http://www.w3.org/2000/svg" width="31" height="30" fill="none" xmlns:v="https://vecta.io/nano"><path fill-rule="evenodd" d="M7.366 22.678c.123-.537.378-1.172.554-1.691.421-1.241.427-.896.032-1.537-3.494-5.679.571-12.513 6.651-12.773 5.013-.214 9.008 3.947 8.708 8.826-.385 6.261-7.417 9.964-12.841 6.494-.271-.174-.367-.368-.707-.241-.252.094-.516.208-.764.31-.418.173-1.215.524-1.633.613zm4.192-12.225c-1.503.32-1.786 1.977-1.203 3.525.962 2.555 3.085 4.071 5.481 5.117 1.476.644 2.948.938 3.713-.48.57-1.056.365-1.259-.335-1.629-2.933-1.548-1.682 1.325-3.491.558-.874-.37-2.369-1.685-2.914-2.355-.467-.576-.95-.921-.281-1.729.421-.509 1.144-.463-.27-2.52-.211-.307-.296-.574-.702-.488h0zM0 14.533c0 3.179.309 4.148 1.391 6.809 1.05 2.584 3.614 5.206 6.037 6.629C9.993 29.479 12.435 30 15.467 30c2.616 0 5.113-.888 7.063-2.003 1.838-1.051 3.52-2.61 4.736-4.33a15.11 15.11 0 0 0 2.294-4.972c.726-2.855.562-5.955-.402-8.72-.17-.488-.378-.893-.55-1.317-.181-.446-.388-.795-.613-1.187-.64-1.118-1.473-2.18-2.38-3.087C23.013 1.78 19.254 0 15.467 0c-3.079 0-5.38.507-7.997 2.003-.372.213-.727.447-1.097.703-1.37.947-2.684 2.277-3.639 3.627C1.145 8.581 0 11.581 0 14.533h0z" fill="#fff"/></svg>