<svg xmlns="http://www.w3.org/2000/svg" width="31" height="30" fill="none" xmlns:v="https://vecta.io/nano"><path fill-rule="evenodd" d="M9.207 9.242c.763-.135 9.025-.049 10.527-.051 1.307-.002 1.943.152 2.672.87.681.67.93 1.325.928 2.606V16.2c0 1.191.133 2.159-.422 3.113a3.09 3.09 0 0 1-2.095 1.442c-.731.127-9.067.044-10.55.046-1.298.002-1.94-.155-2.667-.867-.685-.67-.936-1.314-.934-2.6V13.8c0-1.136-.13-2.22.421-3.113.422-.684 1.07-1.259 2.12-1.445zm3.674 8.963c.44-.148 4.666-2.941 5.144-3.111-.161-.238-.348-.283-.607-.446l-4.537-2.776-.001 6.333zM0 14.533c0 3.179.309 4.148 1.391 6.809 1.05 2.584 3.614 5.206 6.038 6.629C9.993 29.479 12.435 30 15.467 30c2.616 0 5.113-.888 7.063-2.003 1.838-1.051 3.52-2.61 4.736-4.33a15.11 15.11 0 0 0 2.294-4.972c.725-2.855.562-5.955-.402-8.72-.17-.488-.377-.893-.55-1.317-.181-.446-.388-.794-.613-1.187-.64-1.118-1.473-2.18-2.38-3.087C23.013 1.78 19.254 0 15.467 0c-3.079 0-5.38.507-7.997 2.003-.372.213-.727.447-1.097.703-1.37.947-2.684 2.277-3.639 3.627C1.145 8.581 0 11.581 0 14.533h0z" fill="#fff"/></svg>