<?xml version="1.0" standalone="no"?>
<!DOCTYPE svg PUBLIC "-//W3C//DTD SVG 20010904//EN"
 "http://www.w3.org/TR/2001/REC-SVG-20010904/DTD/svg10.dtd">
<svg version="1.0" xmlns="http://www.w3.org/2000/svg"
 width="700.000000pt" height="700.000000pt" viewBox="0 0 700.000000 700.000000"
 preserveAspectRatio="xMidYMid meet">
<metadata>
Created by potrace 1.14, written by Peter Selinger 2001-2017
</metadata>
<g transform="translate(0.000000,700.000000) scale(0.100000,-0.100000)"
fill="#000000" stroke="none">
<path d="M3280 6994 c-19 -2 -84 -9 -145 -14 -578 -56 -1180 -283 -1660 -625
-237 -169 -531 -446 -709 -670 -416 -521 -673 -1147 -748 -1820 -17 -154 -17
-585 0 -730 69 -588 254 -1099 567 -1570 126 -189 242 -332 410 -504 580 -595
1295 -943 2140 -1043 145 -17 576 -17 730 0 822 91 1556 447 2131 1034 203
206 348 390 487 618 274 449 432 915 499 1465 16 135 16 591 0 730 -100 846
-447 1557 -1043 2141 -555 542 -1249 874 -2029 970 -117 15 -553 27 -630 18z
m-1514 -1090 l374 -216 2 -1048 3 -1049 222 127 222 127 3 659 3 659 190 109
c105 61 274 159 378 219 l187 108 0 -788 0 -788 -357 -206 c-197 -113 -366
-212 -376 -219 -15 -11 26 -38 355 -228 l373 -216 3 -1140 2 -1141 -375 -216
c-207 -120 -378 -217 -380 -217 -3 0 -5 561 -5 1248 l0 1247 -217 125 c-119
69 -220 127 -225 128 -4 2 -8 -438 -8 -978 0 -570 -4 -980 -9 -978 -5 1 -176
99 -380 217 l-371 215 0 2228 c0 1225 3 2228 6 2228 3 0 174 -97 380 -216z
m3519 -618 l490 -284 3 -569 2 -568 -371 -215 c-205 -118 -376 -216 -380 -218
-5 -2 -10 301 -11 674 l-3 678 -220 128 c-121 70 -223 128 -227 128 -5 0 -8
-747 -8 -1659 l0 -1659 228 -131 227 -131 5 547 5 547 369 213 c202 117 372
213 377 213 5 0 9 -316 9 -739 l0 -739 -472 -273 c-260 -150 -482 -278 -493
-285 -19 -12 -66 13 -510 269 l-490 283 -2 1754 -2 1755 487 282 c268 154 489
281 492 282 3 0 226 -127 495 -283z"/>
</g>
</svg>
