<svg width="133" height="150" viewBox="0 0 133 150" fill="none" xmlns="http://www.w3.org/2000/svg">
<path fill-rule="evenodd" clip-rule="evenodd" d="M36.6897 23.1445C36.6897 30.1833 38.4095 36.7046 38.4095 38.6719C38.4095 38.7515 35.8297 41.2725 35.8297 44.2383C35.8297 47.6942 36.61 51.5912 38.3244 53.4073C38.9674 54.0883 39.0762 54.2365 39.9337 54.6921C41.0146 55.2664 40.9678 55.0222 41.6928 55.824C42.6847 56.9207 42.8642 58.621 43.2238 60.1184C46.051 71.8914 50.7349 68.6238 50.7349 77.0508C50.7349 92.6927 36.4956 97.0257 23.3834 102.122C21.7883 102.742 20.7718 103.142 19.2841 103.792C17.7561 104.46 16.8576 104.946 15.3123 105.592C11.169 107.324 0 113.942 0 119.531V150H133V119.531C133 117.958 132.12 116.254 131.351 115.357C130.135 113.939 129.995 113.633 128.504 112.407C126.434 110.706 124.12 108.963 121.631 107.714C118.465 106.126 117.792 105.527 113.918 103.878C105.324 100.22 97.5995 97.989 90.0555 92.8187C88.1492 91.5122 85.6111 88.8109 84.5509 86.7263C82.7777 83.24 82.2651 80.5604 82.2651 75.879C82.2651 69.8282 87.2117 70.833 89.7192 60.3532C91.4368 53.1749 91.4334 56.7219 94.5328 53.5544C95.5867 52.4775 96.0962 51.4946 96.4835 49.6887C97.1504 46.5791 97.6207 44.135 96.4083 41.2086C94.5134 36.6354 93.9947 43.0493 95.5746 32.0605C96.5309 25.4087 97.097 19.4763 93.5017 13.4175C92.7053 12.0754 91.9806 10.6819 90.9404 9.5901L89.8258 8.38558C84.9795 3.03527 76.3702 0 69.0798 0C60.3116 0 52.3937 0.458319 45.2441 6.39961L42.2044 9.44518C39.5389 12.2005 36.6897 18.6407 36.6897 23.1445Z" fill="#EBE9F0"/>
</svg>
